<svg width="24px" height="16px" viewBox="0 0 24 16" version="1.1" xmlns="http://www.w3.org/2000/svg" xmlns:xlink="http://www.w3.org/1999/xlink">
  <defs></defs>
  <g id="Symbols" stroke="none" stroke-width="1" fill="none" fill-rule="evenodd">
    <g transform="translate(-16.000000, -20.000000)" fill-rule="nonzero" fill="#000">
      <g id="Topbar">
        <g id="Icons/Hamburger" transform="translate(10.000000, 10.000000)">
          <path d="M20,19 L7,19 C6.4,19 6,18.6 6,18 C6,17.4 6.4,17 7,17 L20,17 C20.6,17 21,17.4 21,18 C21,18.6 20.6,19 20,19 Z M29,12 L7,12 C6.4,12 6,11.6 6,11 C6,10.4 6.4,10 7,10 L29,10 C29.6,10 30,10.4 30,11 C30,11.6 29.6,12 29,12 Z M29,26 L7,26 C6.4,26 6,25.6 6,25 C6,24.4 6.4,24 7,24 L29,24 C29.6,24 30,24.4 30,25 C30,25.6 29.6,26 29,26 Z" id="Menu"></path>
        </g>
      </g>
    </g>
  </g>
</svg>