<svg class="svg_five" xmlns="http://www.w3.org/2000/svg" width="19" height="19" viewBox="0 0 19 19" enable-background="new 0 0 19 19" xml:space="preserve">
	<rect width="3" height="3"></rect>
	<rect x="4" width="3" height="3"></rect>
	<rect x="8" width="3" height="3"></rect>
	<rect x="12" width="3" height="3"></rect>
	<rect x="16" width="3" height="3"></rect>
	<rect y="4" width="3" height="3"></rect>
	<rect x="4" y="4" width="3" height="3"></rect>
	<rect x="8" y="4" width="3" height="3"></rect>
	<rect x="12" y="4" width="3" height="3"></rect>
	<rect x="16" y="4" width="3" height="3"></rect>
	<rect y="8" width="3" height="3"></rect>
	<rect x="4" y="8" width="3" height="3"></rect>
	<rect x="8" y="8" width="3" height="3"></rect>
	<rect x="12" y="8" width="3" height="3"></rect>
	<rect x="16" y="8" width="3" height="3"></rect>
	<rect y="12" width="3" height="3"></rect>
	<rect x="4" y="12" width="3" height="3"></rect>
	<rect x="8" y="12" width="3" height="3"></rect>
	<rect x="12" y="12" width="3" height="3"></rect>
	<rect x="16" y="12" width="3" height="3"></rect>
	<rect y="16" width="3" height="3"></rect>
	<rect x="4" y="16" width="3" height="3"></rect>
	<rect x="8" y="16" width="3" height="3"></rect>
	<rect x="12" y="16" width="3" height="3"></rect>
	<rect x="16" y="16" width="3" height="3"></rect>
</svg>